<svg width="26" height="26" viewBox="0 0 26 26" fill="none" xmlns="http://www.w3.org/2000/svg">
<g id="instagram">
<path id="Vector" d="M16.1621 7.02869H10.2983C8.61911 7.02869 7.25977 8.38219 7.25977 10.0542V15.8928C7.25977 17.5648 8.61911 18.9183 10.2983 18.9183H16.1621C17.8413 18.9183 19.2006 17.5648 19.2006 15.8928V10.0542C19.2006 8.38219 17.8413 7.02869 16.1621 7.02869ZM13.2835 16.5828C11.2845 16.5828 9.6586 14.9639 9.6586 12.9735C9.6586 10.983 11.2845 9.36414 13.2835 9.36414C15.2825 9.36414 16.9084 10.983 16.9084 12.9735C16.9084 14.9639 15.2825 16.5828 13.2835 16.5828ZM17.1217 10.0011C16.6419 10.0011 16.2687 9.62954 16.2687 9.15183C16.2687 8.67412 16.6419 8.30257 17.1217 8.30257C17.6014 8.30257 17.9746 8.67412 17.9746 9.15183C18.0012 9.603 17.6014 10.0011 17.1217 10.0011Z" fill="white"/>
<path id="Vector_2" d="M13.2837 10.6646C12.0043 10.6646 10.9648 11.6996 10.9648 12.9735C10.9648 14.2474 12.0043 15.2824 13.2837 15.2824C14.5631 15.2824 15.6026 14.2474 15.6026 12.9735C15.6026 11.6996 14.5631 10.6646 13.2837 10.6646Z" fill="white"/>
<path id="Vector_3" d="M13.2302 0.5C6.32686 0.5 0.67627 6.12633 0.67627 13C0.67627 19.8737 6.32686 25.5 13.2302 25.5C20.1335 25.5 25.7841 19.8737 25.7841 13C25.7841 6.09979 20.1335 0.5 13.2302 0.5ZM20.5866 15.9193C20.5866 18.3344 18.6142 20.3248 16.1621 20.3248H10.2983C7.87278 20.3248 5.87375 18.3609 5.87375 15.9193V10.0807C5.87375 7.66561 7.84613 5.67516 10.2983 5.67516H16.1621C18.5876 5.67516 20.5866 7.63907 20.5866 10.0807V15.9193Z" fill="white"/>
</g>
</svg>
