<svg width="26" height="26" viewBox="0 0 26 26" fill="none" xmlns="http://www.w3.org/2000/svg">
<path id="linkedin" d="M13.0681 0.5C6.16475 0.5 0.51416 6.09979 0.51416 12.9735C0.51416 19.8471 6.16475 25.4735 13.0681 25.4735C19.9714 25.4735 25.5953 19.8471 25.5953 12.9735C25.5953 6.09979 19.9714 0.5 13.0681 0.5ZM10.2161 18.4406H7.79063V10.6645H10.2161V18.4406ZM9.0167 9.60297C8.24375 9.60297 7.60406 8.96603 7.60406 8.19639C7.60406 7.42675 8.24375 6.78981 9.0167 6.78981C9.78966 6.78981 10.4294 7.42675 10.4294 8.19639C10.4294 8.96603 9.78966 9.60297 9.0167 9.60297ZM19.305 18.4406H16.8796V14.6454C16.8796 13.7431 16.8529 12.5754 15.6268 12.5754C14.3741 12.5754 14.1609 13.5573 14.1609 14.5658V18.414H11.7354V10.6645H14.0543V11.7261H14.1076C14.4274 11.1157 15.227 10.4788 16.3998 10.4788C18.8519 10.4788 19.305 12.0977 19.305 14.1677V18.4406Z" fill="white"/>
</svg>
