<svg width="26" height="26" viewBox="0 0 26 26" fill="none" xmlns="http://www.w3.org/2000/svg">
<path id="twitter" d="M13.3381 0.5C6.43477 0.5 0.78418 6.12633 0.78418 13C0.78418 19.8737 6.43477 25.5 13.3381 25.5C20.2414 25.5 25.892 19.8737 25.892 13C25.892 6.09979 20.2414 0.5 13.3381 0.5ZM20.3214 8.72718C20.3214 8.75372 20.3214 8.85987 20.2414 8.93949C19.9216 9.36412 19.5751 9.76221 19.1486 10.0807C19.0953 10.1338 18.9887 10.1868 18.9887 10.2665C18.9887 12.5223 18.4023 14.7516 16.7764 16.397C14.6708 18.4671 11.5256 19.0244 8.72699 18.2813C8.19392 18.1221 7.66085 17.9363 7.18108 17.6709C7.02116 17.5913 6.86124 17.4851 6.70131 17.379C6.64801 17.3524 6.62134 17.3259 6.67465 17.2994C6.7013 17.2728 6.72796 17.2728 6.86123 17.2994C7.63419 17.379 8.46046 17.2728 9.18011 17.0074C9.57992 16.8747 10.4595 16.5828 10.6994 16.2113C10.6994 16.2113 10.6994 16.2113 10.726 16.1847C10.6194 16.1582 10.5128 16.1582 10.4328 16.1316C9.68653 15.9193 8.67368 15.5478 8.19392 14.2739C8.16726 14.1943 8.19391 14.1677 8.27387 14.1677C8.88691 14.2208 9.12679 14.1943 9.34002 14.1412C9.20676 14.1146 9.10015 14.0881 8.96688 14.035C8.00735 13.6635 7.31435 12.7346 7.18108 11.7527C7.15442 11.6465 7.15441 11.5403 7.15441 11.4342C7.15441 11.3546 7.18107 11.328 7.26104 11.3811C7.7408 11.6465 8.30053 11.6996 8.35383 11.673C8.22056 11.5669 8.11395 11.4607 8.00734 11.3811C7.18107 10.6115 6.86123 9.01911 7.52757 8.01062C7.58088 7.931 7.60753 7.931 7.68749 8.01062C9.20675 9.73567 11.0725 10.5318 13.3381 10.8769C13.3914 10.8769 13.3914 10.8769 13.3914 10.8238C13.3381 10.4257 13.3381 10.0541 13.418 9.65605C13.5247 9.25796 13.7112 8.85987 13.9778 8.5414C14.2443 8.22293 14.5642 7.95754 14.9107 7.77176C15.2572 7.58599 15.657 7.47983 16.0568 7.45329C16.4832 7.42675 16.883 7.47983 17.2828 7.63907C17.576 7.74522 17.8426 7.931 18.0824 8.11677C18.1358 8.16985 18.1891 8.19639 18.2157 8.27601C18.2424 8.30255 18.269 8.32909 18.3223 8.30255C18.9087 8.16985 19.4418 7.95754 19.9749 7.66561C20.0015 7.66561 20.0282 7.63907 20.0548 7.66561C20.0815 7.69214 20.0815 7.71868 20.0548 7.74522C19.9482 8.03715 19.7883 8.32909 19.6017 8.56794C19.4684 8.72718 19.1486 9.12527 18.9087 9.17834C19.3885 9.09873 19.8683 8.99257 20.2947 8.78025C20.3214 8.6741 20.3214 8.6741 20.3214 8.72718C20.3214 8.70064 20.3214 8.70064 20.3214 8.72718Z" fill="white"/>
</svg>
