<svg width="26" height="26" viewBox="0 0 26 26" fill="none" xmlns="http://www.w3.org/2000/svg">
<g id="youtube">
<path id="Vector" d="M13.446 0.5C6.54269 0.5 0.89209 6.12633 0.89209 13C0.89209 19.8737 6.54269 25.5 13.446 25.5C20.3493 25.5 25.9999 19.8737 25.9999 13C25.9733 6.12633 20.3493 0.5 13.446 0.5ZM20.1627 14.7516C20.1627 16.397 18.8034 17.7505 17.1509 17.7505H9.44795C7.79542 17.7505 6.43607 16.397 6.43607 14.7516V11.1688C6.43607 9.52335 7.79542 8.16985 9.44795 8.16985H17.1509C18.8034 8.16985 20.1627 9.52335 20.1627 11.1688V14.7516Z" fill="white"/>
<path id="Vector_2" d="M15.4715 12.8673L12.1664 11.0891C12.0332 11.0095 11.5801 11.1157 11.5801 11.2749V14.7781C11.5801 14.9373 12.0332 15.017 12.1664 14.9639L15.6314 13.2654C15.7647 13.1592 15.6048 12.9469 15.4715 12.8673Z" fill="white"/>
</g>
</svg>
