<svg width="34" height="34" viewBox="0 0 34 34" fill="none" xmlns="http://www.w3.org/2000/svg">
<g id="Instagram">
<g id="Instagram_2">
<rect id="Rectangle" x="0.5" y="0.5" width="33" height="33" rx="16.5" stroke="#28292B"/>
<path id="Vector" d="M13.4594 17C13.4594 15.0441 15.0446 13.4581 17.0005 13.4581C18.9564 13.4581 20.5424 15.0441 20.5424 17C20.5424 18.9559 18.9564 20.542 17.0005 20.542C15.0446 20.542 13.4594 18.9559 13.4594 17ZM11.5447 17C11.5447 20.0133 13.9872 22.4558 17.0005 22.4558C20.0137 22.4558 22.4563 20.0133 22.4563 17C22.4563 13.9868 20.0137 11.5442 17.0005 11.5442C13.9872 11.5442 11.5447 13.9868 11.5447 17ZM21.3973 11.3279C21.3972 11.58 21.4719 11.8266 21.6119 12.0363C21.7519 12.246 21.951 12.4095 22.1839 12.5061C22.4168 12.6027 22.6732 12.6281 22.9205 12.579C23.1679 12.5299 23.3951 12.4085 23.5735 12.2303C23.7519 12.0521 23.8734 11.8249 23.9227 11.5776C23.972 11.3303 23.9468 11.0739 23.8504 10.8409C23.754 10.6079 23.5907 10.4087 23.3811 10.2685C23.1714 10.1284 22.925 10.0535 22.6728 10.0534H22.6723C22.3343 10.0535 22.0101 10.1878 21.7711 10.4268C21.532 10.6658 21.3976 10.9899 21.3973 11.3279ZM12.708 25.6485C11.6721 25.6013 11.1091 25.4288 10.7349 25.283C10.2388 25.0899 9.88488 24.8599 9.51275 24.4882C9.14062 24.1166 8.91027 23.763 8.718 23.267C8.57214 22.893 8.39959 22.3298 8.3525 21.2939C8.30099 20.1739 8.29071 19.8375 8.29071 17.0001C8.29071 14.1627 8.30184 13.8272 8.3525 12.7063C8.39968 11.6704 8.5735 11.1083 8.718 10.7332C8.91112 10.2371 9.14113 9.88321 9.51275 9.51108C9.88437 9.13895 10.238 8.9086 10.7349 8.71633C11.1089 8.57047 11.6721 8.39792 12.708 8.35083C13.8279 8.29932 14.1644 8.28903 17.0005 8.28903C19.8366 8.28903 20.1734 8.30017 21.2943 8.35083C22.3302 8.398 22.8923 8.57183 23.2674 8.71633C23.7634 8.9086 24.1174 9.13946 24.4895 9.51108C24.8616 9.8827 25.0911 10.2371 25.2842 10.7332C25.4301 11.1072 25.6027 11.6704 25.6497 12.7063C25.7013 13.8272 25.7115 14.1627 25.7115 17.0001C25.7115 19.8375 25.7013 20.173 25.6497 21.2939C25.6026 22.3298 25.4292 22.8928 25.2842 23.267C25.0911 23.763 24.8611 24.117 24.4895 24.4882C24.1179 24.8595 23.7634 25.0899 23.2674 25.283C22.8934 25.4289 22.3302 25.6014 21.2943 25.6485C20.1743 25.7 19.8379 25.7103 17.0005 25.7103C14.1631 25.7103 13.8276 25.7 12.708 25.6485ZM12.62 6.43935C11.4889 6.49086 10.716 6.6702 10.041 6.93286C9.34199 7.20409 8.75022 7.56798 8.15887 8.15839C7.56753 8.7488 7.20458 9.3415 6.93334 10.0405C6.67069 10.716 6.49134 11.4884 6.43983 12.6195C6.38747 13.7524 6.37549 14.1146 6.37549 17C6.37549 19.8854 6.38747 20.2476 6.43983 21.3805C6.49134 22.5117 6.67069 23.2841 6.93334 23.9595C7.20458 24.6581 7.56761 25.2515 8.15887 25.8416C8.75013 26.4318 9.34199 26.7951 10.041 27.0671C10.7173 27.3298 11.4889 27.5091 12.62 27.5607C13.7535 27.6122 14.1151 27.625 17.0005 27.625C19.8859 27.625 20.2481 27.613 21.381 27.5607C22.5121 27.5091 23.2845 27.3298 23.9599 27.0671C24.6586 26.7951 25.2508 26.432 25.8421 25.8416C26.4334 25.2512 26.7956 24.6581 27.0676 23.9595C27.3303 23.2841 27.5105 22.5116 27.5611 21.3805C27.6126 20.2467 27.6246 19.8854 27.6246 17C27.6246 14.1146 27.6126 13.7524 27.5611 12.6195C27.5096 11.4883 27.3303 10.7155 27.0676 10.0405C26.7956 9.34193 26.4325 8.74973 25.8421 8.15839C25.2517 7.56704 24.6586 7.20409 23.9608 6.93286C23.2845 6.6702 22.5121 6.49001 21.3818 6.43935C20.2489 6.38784 19.8867 6.375 17.0013 6.375C14.1159 6.375 13.7535 6.38699 12.62 6.43935Z" fill="#28292B"/>
</g>
</g>
</svg>
