<svg width="34" height="34" viewBox="0 0 34 34" fill="none" xmlns="http://www.w3.org/2000/svg">
<g id="LinkedIn">
<g id="LinkedIn_2">
<rect id="Rectangle" x="0.5" y="0.5" width="33" height="33" rx="16.5" stroke="#28292B"/>
<g id="Group">
<path id="Path" d="M26.4385 25.022C25.3229 24.9954 24.2338 24.9954 23.1182 25.022C22.8791 25.022 22.826 24.9688 22.826 24.7298C22.826 22.7641 22.826 20.772 22.826 18.8063C22.826 18.3548 22.7994 17.9032 22.6666 17.4782C22.2682 16.097 20.6744 15.5923 19.5322 16.522C18.9213 17.0001 18.6822 17.6641 18.6822 18.461C18.6822 20.3204 18.6822 22.1798 18.6822 24.0391C18.6822 24.2782 18.6557 24.5173 18.6822 24.7829C18.7088 24.9954 18.6025 25.0485 18.4166 25.022C17.2744 25.022 16.1588 25.022 15.0166 25.022C14.8041 25.022 14.751 24.9688 14.751 24.7563C14.7775 23.0829 14.7775 21.4095 14.7775 19.7095C14.7775 17.6376 14.7775 15.5657 14.751 13.5204C14.751 13.2813 14.8041 13.2282 15.0166 13.2282C16.1588 13.2282 17.2744 13.2282 18.4166 13.2282C18.6291 13.2282 18.6822 13.2813 18.6822 13.4938C18.6822 13.9188 18.6822 14.3438 18.6822 14.8485C18.7619 14.7688 18.7885 14.7423 18.815 14.7157C19.851 13.2016 21.3119 12.7766 23.0385 13.0423C25.0307 13.361 26.3057 14.7423 26.6244 16.8673C26.7041 17.372 26.7307 17.8766 26.7307 18.3813C26.7307 20.5063 26.7307 22.6048 26.7307 24.7298C26.7307 24.9423 26.6775 25.022 26.4385 25.022Z" fill="#28292B"/>
<path id="Path_2" d="M12.6264 19.1249C12.6264 20.9843 12.6264 22.8437 12.6264 24.703C12.6264 24.9421 12.5732 25.0218 12.3342 25.0218C11.2186 24.9952 10.1029 25.0218 8.9873 25.0218C8.7748 25.0218 8.72168 24.9687 8.72168 24.7562C8.72168 21.0108 8.72168 17.239 8.72168 13.4937C8.72168 13.3077 8.7748 13.228 8.9873 13.228C10.1295 13.228 11.2717 13.228 12.4139 13.228C12.6529 13.228 12.6795 13.3077 12.6795 13.5202C12.6264 15.3796 12.6264 17.239 12.6264 19.1249Z" fill="#28292B"/>
<path id="Path_3" d="M12.8121 10.1469C12.5465 11.2094 11.4574 11.8204 10.209 11.6079C8.88085 11.3954 8.1371 10.0938 8.61523 8.81883C8.93398 8.02195 9.70429 7.54383 10.6871 7.57039C12.1746 7.54383 13.1574 8.73914 12.8121 10.1469Z" fill="#28292B"/>
</g>
</g>
</g>
</svg>
