<svg width="34" height="34" viewBox="0 0 34 34" fill="none" xmlns="http://www.w3.org/2000/svg">
<g id="Twitter">
<g id="Twitter_2">
<rect id="Rectangle" x="0.5" y="0.5" width="33" height="33" rx="16.5" stroke="#28292B"/>
<path id="Path" d="M25.3319 13.3257C25.3319 13.5116 25.3319 13.6976 25.3319 13.8569C25.3319 19.3554 21.1351 25.7038 13.4851 25.7038C11.121 25.7038 8.94287 25.0132 7.0835 23.8444C7.40225 23.871 7.74756 23.8976 8.06631 23.8976C10.0054 23.8976 11.8116 23.2335 13.246 22.1179C11.4132 22.0913 9.87256 20.8694 9.36787 19.2226C9.6335 19.2757 9.87256 19.3022 10.1647 19.3022C10.5366 19.3022 10.9085 19.2491 11.2538 19.1429C9.34131 18.771 7.90693 17.0976 7.90693 15.0788C7.90693 15.0522 7.90693 15.0522 7.90693 15.0257C8.46475 15.3444 9.10225 15.5304 9.79287 15.5569C8.67725 14.8132 7.9335 13.5382 7.9335 12.0772C7.9335 11.3069 8.146 10.5897 8.49131 9.97881C10.5366 12.5022 13.6179 14.1491 17.071 14.3351C16.9913 14.0429 16.9647 13.6976 16.9647 13.3788C16.9647 11.0679 18.8241 9.2085 21.1351 9.2085C22.3304 9.2085 23.4194 9.71318 24.1632 10.5101C25.1194 10.3241 25.996 9.97881 26.8194 9.50068C26.5007 10.4835 25.8366 11.2804 24.9866 11.8116C25.8366 11.7054 26.6335 11.4929 27.3772 11.1476C26.846 11.9976 26.1554 12.7413 25.3319 13.3257Z" fill="#28292B"/>
</g>
</g>
</svg>
