<svg width="34" height="34" viewBox="0 0 34 34" fill="none" xmlns="http://www.w3.org/2000/svg">
<g id="WhatsApp">
<g id="Tiktok">
<rect id="Rectangle" x="0.5" y="0.5" width="33" height="33" rx="16.5" stroke="#28292B"/>
</g>
<path id="Vector" d="M14.6611 26.3338C16.0709 26.1268 17.3705 25.4792 18.397 24.4659C19.6569 23.2191 20.353 21.5671 20.3618 19.8049L20.3442 11.9675C20.9433 12.4301 21.5998 12.8178 22.309 13.113C23.406 13.5755 24.569 13.8134 25.7629 13.8134V11.2715C24.4369 11.016 23.2826 10.2758 22.4941 9.23614C21.4544 8.45197 20.7054 7.29773 20.4455 5.97168H17.9212V15.5448L17.9168 20.7873C17.9168 22.1883 16.996 23.3777 15.7184 23.7963C15.3484 23.9196 14.9475 23.9769 14.5289 23.9505C13.4716 23.8932 12.5509 23.3249 12.009 22.4922C11.0883 21.946 10.4627 20.9547 10.4451 19.8181C10.4186 18.0471 11.8636 16.6021 13.6523 16.6021C14.0047 16.6021 14.3439 16.6594 14.6611 16.7607V14.1527C12.8813 14.1659 11.2116 14.8575 9.95606 16.1043C8.7093 17.3422 7.99561 19.0339 8.00002 20.7873C8.00002 22.3469 8.5419 23.8271 9.54194 25.0122C10.7138 25.9153 12.1456 26.4043 13.6523 26.4043C13.9915 26.4087 14.3307 26.3823 14.6611 26.3338Z" fill="#28292B"/>
</g>
</svg>
